# File created by Blade
# Date/Time:  Thu Sep 25 19:04:16 2014
# Frame Rate: 120.000 fps
#------------------------------------------------------
:FULLY-SPECIFIED
:DEGREES
739
root 3.708330 29.961923 -9.430341 92.588146 21.656068 29.177576
Spine 23.600235 27.442517 26.857660
Head -34.790202 24.360052 -18.363677
LeftShoulder -14.984501 29.315335 25.179794
LeftArm -7.528496 40.775727 -58.637755
LeftForeArm -3.608541 0.000000 13.124350
LeftHand -33.552810 -0.000000 -6.825817
LeftHandThumb1 -26.253704 0.000000 33.147579
RightShoulder 0.392589 32.220606 -34.725008
RightArm 29.998208 -2.013864 58.995519
RightForeArm -11.302341 -0.000000 12.648134
RightHand -11.870280 -0.000000 -19.236496
RightHandThumb1 -24.326973 -0.000000 -32.862282
LeftUpLeg -92.929670 -14.273828 1.890188
LeftLeg -6.116001 -0.000000 0.000000
LeftFoot 9.059541 4.745487 -28.931915
LeftToeBase 8.182851 -0.000000 -0.000000
RightUpLeg -84.670494 -59.153372 13.148314
RightLeg -3.967052 -0.000000 0.000000
RightFoot 1.143661 -21.078695 24.613030
RightToeBase 5.871133 -0.000000 -0.000000
740
root 3.739693 29.954798 -9.422408 93.254878 21.412292 29.512429
Spine 23.728142 27.602353 27.206630
Head -34.513228 24.768364 -18.769250
LeftShoulder -15.078011 29.612103 25.083113
LeftArm -8.384108 40.702083 -59.550423
LeftForeArm -3.780413 -0.000000 13.072291
LeftHand -33.491696 -0.000000 -7.224962
LeftHandThumb1 -26.253704 0.000000 33.147579
RightShoulder 0.157627 32.085357 -34.912128
RightArm 30.180473 -1.786201 58.951855
RightForeArm -11.604132 -0.000000 12.678102
RightHand -12.203425 -0.000000 -20.085200
RightHandThumb1 -24.326973 -0.000000 -32.862282
LeftUpLeg -93.405550 -14.629846 1.756077
LeftLeg -6.188505 -0.000000 0.000000
LeftFoot 9.108624 4.764720 -28.707238
LeftToeBase 7.599728 -0.000000 -0.000000
RightUpLeg -85.701057 -59.417330 13.796517
RightLeg -4.023714 -0.000000 0.000000
RightFoot 1.132656 -21.129308 24.810847
RightToeBase 5.735102 -0.000000 -0.000000
741
root 3.762089 29.948612 -9.410389 93.900953 21.252451 29.790990
Spine 23.910884 27.720473 27.600095
Head -34.472261 25.199599 -19.231528
LeftShoulder -15.412949 29.930525 24.891038
LeftArm -9.072743 40.638838 -60.344457
LeftForeArm -3.809408 -0.000000 12.977974
LeftHand -33.505742 -0.000000 -7.311337
LeftHandThumb1 -26.253704 0.000000 33.147579
RightShoulder -0.150107 32.050020 -35.127360
RightArm 30.446171 -1.815741 58.777685
RightForeArm -11.793108 -0.000000 12.614539
RightHand -12.287688 -0.000000 -21.075218
RightHandThumb1 -24.326973 -0.000000 -32.862282
LeftUpLeg -93.877561 -14.921106 1.617424
LeftLeg -6.250037 -0.000000 0.000000
LeftFoot 9.170596 4.662561 -28.833676
LeftToeBase 7.644461 -0.000000 -0.000000
RightUpLeg -86.549519 -59.596626 14.374449
RightLeg -4.138345 -0.000000 0.000000
RightFoot 1.097226 -21.275885 24.789612
RightToeBase 5.866671 -0.000000 -0.000000
742
root 3.783730 29.945662 -9.399517 94.540321 21.064190 30.061079
Spine 24.070951 27.819732 27.974513
Head -34.306353 25.544974 -19.727983
LeftShoulder -15.771837 30.467041 24.595894
LeftArm -9.465595 40.121817 -60.910938
LeftForeArm -3.565617 0.000000 12.806932
LeftHand -33.668536 -0.000000 -7.518478
LeftHandThumb1 -26.253704 0.000000 33.147579
RightShoulder -0.324451 31.908429 -35.287290
RightArm 30.723277 -1.430929 58.768792
RightForeArm -12.036717 -0.000000 12.724315
RightHand -12.633067 -0.000000 -22.135366
RightHandThumb1 -24.326973 -0.000000 -32.862282
LeftUpLeg -94.346124 -15.219879 1.466591
LeftLeg -6.279732 -0.000000 0.000000
LeftFoot 9.162816 4.597354 -28.530615
LeftToeBase 7.838208 -0.000000 -0.000000
RightUpLeg -87.863871 -59.756757 15.374549
RightLeg -4.108640 -0.000000 0.000000
RightFoot 1.097230 -21.246755 24.747986
RightToeBase 5.906661 -0.000000 -0.000000
743
root 3.801484 29.942753 -9.388145 95.150284 20.913242 30.270324
Spine 24.292416 27.869362 28.316614
Head -34.409608 25.854987 -20.250598
LeftShoulder -16.214792 30.815302 24.355364
LeftArm -10.126187 39.955408 -61.696114
LeftForeArm -3.700325 0.000000 12.659488
LeftHand -33.718484 -0.000000 -7.606672
LeftHandThumb1 -26.253704 0.000000 33.147579
RightShoulder -0.625354 31.984853 -35.517904
RightArm 30.965207 -1.469682 58.651224
RightForeArm -11.962268 -0.000000 12.813748
RightHand -12.725738 -0.000000 -23.717438
RightHandThumb1 -24.326973 -0.000000 -32.862282
LeftUpLeg -94.810199 -15.466767 1.332247
LeftLeg -6.315468 -0.000000 0.000000
LeftFoot 9.289799 4.423278 -28.327692
LeftToeBase 7.644189 -0.000000 -0.000000
RightUpLeg -89.133243 -59.841780 16.402781
RightLeg -4.137159 -0.000000 0.000000
RightFoot 1.148815 -21.228746 24.667898
RightToeBase 5.883753 -0.000000 -0.000000
744
root 3.811571 29.943260 -9.374780 95.755083 20.759913 30.416999
Spine 24.484774 28.071639 28.692294
Head -34.276262 26.131490 -20.690459
LeftShoulder -16.495255 31.227681 24.180860
LeftArm -10.669389 39.612156 -62.399907
LeftForeArm -3.674669 -0.000000 12.484798
LeftHand -33.582853 -0.000000 -8.097263
LeftHandThumb1 -26.253704 0.000000 33.147579
RightShoulder -0.900589 31.977827 -35.746503
RightArm 31.135518 -1.385956 58.543614
RightForeArm -11.919763 -0.000000 12.961491
RightHand -12.841128 -0.000000 -25.030140
RightHandThumb1 -24.326973 -0.000000 -32.862282
LeftUpLeg -95.288636 -15.633278 1.188354
LeftLeg -6.345935 -0.000000 0.000000
LeftFoot 9.307116 4.350766 -28.444121
LeftToeBase 8.039050 -0.000000 -0.000000
RightUpLeg -90.179334 -59.837538 17.189139
RightLeg -4.201965 -0.000000 0.000000
RightFoot 1.084449 -21.333804 24.811146
RightToeBase 5.895552 -0.000000 -0.000000
745
root 3.827982 29.942240 -9.364291 96.301953 20.603891 30.592406
Spine 24.679472 28.143216 29.061456
Head -34.026976 26.487976 -21.045431
LeftShoulder -16.675407 31.635502 24.063550
LeftArm -11.384402 39.198849 -63.238881
LeftForeArm -3.661677 -0.000000 12.358461
LeftHand -33.897234 -0.000000 -8.502795
LeftHandThumb1 -26.253704 0.000000 33.147579
RightShoulder -1.204295 31.863365 -36.031369
RightArm 31.512461 -0.852852 58.775123
RightForeArm -12.695654 0.000000 12.976978
RightHand -13.039862 -0.000000 -25.675505
RightHandThumb1 -24.326973 -0.000000 -32.862282
LeftUpLeg -95.703460 -15.850508 1.060295
LeftLeg -6.385505 -0.000000 0.000000
LeftFoot 9.336742 4.289135 -28.199075
LeftToeBase 7.759817 -0.000000 -0.000000
RightUpLeg -91.129553 -59.898697 17.897684
RightLeg -4.265075 -0.000000 0.000000
RightFoot 1.135908 -21.364587 24.785937
RightToeBase 5.899036 -0.000000 -0.000000
746
root 3.836747 29.945089 -9.351387 96.830799 20.451265 30.660726
Spine 24.951266 28.335903 29.419756
Head -33.922645 26.795558 -21.455782
LeftShoulder -16.822822 31.943531 23.956902
LeftArm -12.147797 38.810322 -64.075795
LeftForeArm -3.740900 0.000000 12.200878
LeftHand -33.661241 -0.000000 -8.880740
LeftHandThumb1 -26.253704 0.000000 33.147579
RightShoulder -1.461691 31.940247 -36.225646
RightArm 31.670660 -0.608879 58.746656
RightForeArm -12.769533 -0.000000 13.196421
RightHand -13.460237 -0.000000 -26.798765
RightHandThumb1 -24.326973 -0.000000 -32.862282
LeftUpLeg -96.143053 -15.957306 0.916700
LeftLeg -6.374156 -0.000000 0.000000
LeftFoot 9.409427 4.251943 -28.215998
LeftToeBase 7.432666 -0.000000 -0.000000
RightUpLeg -92.162140 -59.820387 18.672177
RightLeg -4.278104 -0.000000 0.000000
RightFoot 1.174065 -21.391031 24.720667
RightToeBase 5.931580 -0.000000 -0.000000
747
root 3.843615 29.947496 -9.337882 97.361646 20.361645 30.764398
Spine 25.172899 28.382412 29.771760
Head -33.818141 27.203616 -21.817569
LeftShoulder -17.189343 32.347680 23.773000
LeftArm -12.734815 38.358416 -64.811847
LeftForeArm -3.680378 -0.000000 11.998081
LeftHand -33.752185 -0.000000 -8.985597
LeftHandThumb1 -26.253704 0.000000 33.147579
RightShoulder -1.644700 32.021933 -36.430471
RightArm 31.851782 -0.255106 58.815427
RightForeArm -12.920838 -0.000000 13.403233
RightHand -13.539547 -0.000000 -27.564472
RightHandThumb1 -24.326973 -0.000000 -32.862282
LeftUpLeg -96.591190 -16.082361 0.842106
LeftLeg -6.326598 -0.000000 0.000000
LeftFoot 9.265290 4.178227 -28.207130
LeftToeBase 8.053448 -0.000000 -0.000000
RightUpLeg -93.223579 -59.762000 19.556837
RightLeg -4.291163 -0.000000 0.000000
RightFoot 1.189657 -21.390499 24.703694
RightToeBase 5.924305 -0.000000 -0.000000
